<svg width="26" height="26" viewBox="0 0 26 26" fill="none" xmlns="http://www.w3.org/2000/svg">
<path fill-rule="evenodd" clip-rule="evenodd" d="M3.3328 11.2H6.4464C6.5888 8.7264 7.0592 6.448 7.7856 4.6112C6.61601 5.32787 5.61347 6.28671 4.8454 7.42321C4.07734 8.55971 3.56157 9.84752 3.3328 11.2ZM12.8 0C9.40523 0 6.1495 1.34857 3.74903 3.74903C1.34857 6.1495 0 9.40523 0 12.8C0 16.1948 1.34857 19.4505 3.74903 21.851C6.1495 24.2514 9.40523 25.6 12.8 25.6C16.1948 25.6 19.4505 24.2514 21.851 21.851C24.2514 19.4505 25.6 16.1948 25.6 12.8C25.6 9.40523 24.2514 6.1495 21.851 3.74903C19.4505 1.34857 16.1948 0 12.8 0V0ZM12.8 3.2C12.6784 3.2 12.4288 3.2512 12.056 3.6192C11.6752 3.9936 11.2608 4.616 10.8768 5.5104C10.2544 6.9616 9.8 8.9376 9.6512 11.2H15.9488C15.8 8.9376 15.3456 6.9616 14.7232 5.5104C14.3392 4.6144 13.9232 3.9936 13.544 3.6192C13.1712 3.2512 12.9216 3.2 12.8 3.2ZM19.1536 11.2C19.0112 8.7264 18.5408 6.448 17.8144 4.6112C18.984 5.32787 19.9865 6.28671 20.7546 7.42321C21.5227 8.55971 22.0384 9.84752 22.2672 11.2H19.1536ZM15.9488 14.4H9.6512C9.8 16.6624 10.2544 18.6384 10.8768 20.0896C11.2608 20.9856 11.6768 21.6064 12.056 21.9808C12.4288 22.3488 12.6784 22.4 12.8 22.4C12.9216 22.4 13.1712 22.3488 13.544 21.9808C13.9248 21.6064 14.3408 20.984 14.7232 20.0896C15.3456 18.6384 15.8 16.6624 15.9488 14.4ZM17.8144 20.9888C18.5408 19.1536 19.0112 16.8736 19.1536 14.4H22.2672C22.0384 15.7525 21.5227 17.0403 20.7546 18.1768C19.9865 19.3133 18.984 20.2721 17.8144 20.9888V20.9888ZM7.7856 20.9888C7.0592 19.152 6.5888 16.8736 6.448 14.4H3.3328C3.56157 15.7525 4.07734 17.0403 4.8454 18.1768C5.61347 19.3133 6.61601 20.2721 7.7856 20.9888V20.9888Z" fill="#FFC727"/>
</svg>
